<?xml version="1.0" standalone="no"?>
<!DOCTYPE svg PUBLIC "-//W3C//DTD SVG 20010904//EN"
 "http://www.w3.org/TR/2001/REC-SVG-20010904/DTD/svg10.dtd">
<svg version="1.0" xmlns="http://www.w3.org/2000/svg"
 width="78.000000pt" height="78.000000pt" viewBox="0 0 78.000000 78.000000"
 preserveAspectRatio="xMidYMid meet">
<metadata>
Created by potrace 1.11, written by Peter Selinger 2001-2013
</metadata>
<g transform="translate(0.000000,78.000000) scale(0.100000,-0.100000)"
fill="#000000" stroke="none">
<path d="M45 689 c-20 -18 -35 -40 -35 -53 0 -27 27 -66 46 -66 16 0 19 16 4
25 -15 9 -12 41 4 58 12 12 23 12 62 2 52 -13 63 -25 39 -45 -10 -8 -15 -29
-15 -60 0 -47 -1 -48 -35 -54 -41 -8 -61 -40 -51 -80 7 -30 26 -35 26 -8 0 23
19 42 42 42 15 0 18 -9 18 -64 0 -42 -4 -66 -13 -69 -6 -2 -9 -8 -5 -12 4 -4
19 3 32 17 24 23 25 30 27 167 0 78 -2 145 -5 148 -3 4 12 17 34 30 22 13 40
28 40 34 0 11 -11 11 -29 0 -9 -6 -29 -4 -54 5 -61 22 -92 18 -132 -17z"/>
<path d="M281 678 l-41 -43 0 -142 c0 -104 -3 -143 -12 -146 -7 -2 -10 -8 -5
-12 4 -5 17 2 30 15 20 22 22 37 27 169 4 122 8 146 22 155 14 8 24 4 51 -22
l33 -32 34 35 c29 30 31 35 14 35 -11 0 -29 7 -40 15 -35 26 -69 18 -113 -27z"/>
<path d="M515 694 c-31 -33 -33 -83 -5 -115 16 -20 19 -21 20 -7 0 9 -4 20
-10 23 -16 10 -11 53 7 63 11 7 30 5 56 -4 44 -16 87 -4 121 35 20 22 15 25
-19 12 -12 -5 -36 -3 -59 5 -57 20 -84 17 -111 -12z"/>
<path d="M717 680 l-27 -28 0 -196 0 -196 -25 -12 c-23 -10 -32 -7 -85 30 -76
54 -109 61 -148 33 -51 -36 -54 -32 -52 102 2 149 2 143 -11 130 -7 -7 -11
-53 -10 -126 l2 -114 -50 10 c-101 21 -200 -25 -230 -106 -20 -52 -13 -78 29
-118 42 -40 91 -56 135 -45 40 10 29 25 -14 19 -46 -6 -93 17 -110 54 -51 112
96 196 215 123 27 -17 34 -28 34 -53 1 -18 6 -42 13 -53 13 -24 60 -65 94 -83
27 -14 87 -15 78 -1 -3 6 -19 10 -36 10 -47 0 -100 55 -106 111 -4 38 -1 50
20 75 l26 29 33 -19 c87 -51 104 -57 133 -46 15 6 45 24 66 41 l39 31 0 198
c0 173 2 200 16 208 9 5 12 12 7 15 -5 3 -21 -7 -36 -23z"/>
<path d="M617 612 c-11 -12 -17 -36 -17 -64 0 -44 -1 -45 -40 -57 -40 -12 -56
-37 -48 -77 4 -25 28 -30 28 -6 0 25 25 46 46 38 13 -5 15 -20 12 -86 -2 -44
0 -80 3 -80 3 0 13 8 22 18 13 14 17 47 19 175 2 86 0 157 -3 157 -3 0 -13 -8
-22 -18z"/>
</g>
</svg>
